<svg width="120" height="120" viewBox="0 0 120 120" fill="none" xmlns="http://www.w3.org/2000/svg">
  <g>
    <rect width="120" height="120" fill="#18181b"/>
    <g>
      <rect x="0" y="0" width="15" height="15" fill="#fff"/>
      <rect x="15" y="15" width="15" height="15" fill="#fff"/>
      <rect x="30" y="0" width="15" height="15" fill="#fff"/>
      <rect x="45" y="15" width="15" height="15" fill="#fff"/>
      <rect x="60" y="0" width="15" height="15" fill="#fff"/>
      <rect x="75" y="15" width="15" height="15" fill="#fff"/>
      <rect x="90" y="0" width="15" height="15" fill="#fff"/>
      <rect x="105" y="15" width="15" height="15" fill="#fff"/>
      <rect x="0" y="30" width="15" height="15" fill="#fff"/>
      <rect x="15" y="45" width="15" height="15" fill="#fff"/>
      <rect x="30" y="30" width="15" height="15" fill="#fff"/>
      <rect x="45" y="45" width="15" height="15" fill="#fff"/>
      <rect x="60" y="30" width="15" height="15" fill="#fff"/>
      <rect x="75" y="45" width="15" height="15" fill="#fff"/>
      <rect x="90" y="30" width="15" height="15" fill="#fff"/>
      <rect x="105" y="45" width="15" height="15" fill="#fff"/>
    </g>
  </g>
</svg>
